<?xml version="1.0" encoding="UTF-8" standalone="no"?>
<!-- Created with Inkscape (http://www.inkscape.org/) -->

<svg
   xmlns:dc="http://purl.org/dc/elements/1.1/"
   xmlns:cc="http://creativecommons.org/ns#"
   xmlns:rdf="http://www.w3.org/1999/02/22-rdf-syntax-ns#"
   xmlns:svg="http://www.w3.org/2000/svg"
   xmlns="http://www.w3.org/2000/svg"
   xmlns:xlink="http://www.w3.org/1999/xlink"
   xmlns:sodipodi="http://sodipodi.sourceforge.net/DTD/sodipodi-0.dtd"
   xmlns:inkscape="http://www.inkscape.org/namespaces/inkscape"
   id="svg3406"
   version="1.1"
   inkscape:version="0.91 r13725"
   width="350"
   height="350"
   viewBox="0 0 350 350"
   sodipodi:docname="pter.png"
   shape-rendering="crispEdges">
  <metadata
     id="metadata3412">
    <rdf:RDF>
      <cc:Work
         rdf:about="">
        <dc:format>image/svg+xml</dc:format>
        <dc:type
           rdf:resource="http://purl.org/dc/dcmitype/StillImage" />
        <dc:title></dc:title>
      </cc:Work>
    </rdf:RDF>
  </metadata>
  <defs
     id="defs3410">
    <linearGradient
       inkscape:collect="always"
       id="linearGradient4248">
      <stop
         style="stop-color:#008000;stop-opacity:1;"
         offset="0"
         id="stop4250" />
      <stop
         style="stop-color:#000000;stop-opacity:0.73839664"
         offset="1"
         id="stop4252" />
    </linearGradient>
    <linearGradient
       inkscape:collect="always"
       xlink:href="#linearGradient4248"
       id="linearGradient4258"
       x1="55.708321"
       y1="137.52032"
       x2="376.82245"
       y2="229.83104"
       gradientUnits="userSpaceOnUse"
       gradientTransform="translate(3.9703532,0.25741171)" />
  </defs>
  <sodipodi:namedview
     pagecolor="#ffffff"
     bordercolor="#666666"
     borderopacity="1"
     objecttolerance="10"
     gridtolerance="10"
     guidetolerance="10"
     inkscape:pageopacity="0"
     inkscape:pageshadow="2"
     inkscape:window-width="1446"
     inkscape:window-height="804"
     id="namedview3408"
     showgrid="false"
     showborder="true"
     borderlayer="false"
     inkscape:showpageshadow="false"
     inkscape:zoom="1.0074671"
     inkscape:cx="-8.4730046"
     inkscape:cy="174.375"
     inkscape:window-x="0"
     inkscape:window-y="0"
     inkscape:window-maximized="0"
     inkscape:current-layer="svg3406" />
  <path
     style="fill:url(#linearGradient4258);fill-opacity:1;stroke:#ff21ff;stroke-width:1.39999998;stroke-miterlimit:4;stroke-dasharray:none;stroke-opacity:1"
     d="m 58.975897,344.42202 c -3.0907,-1.08134 -6.963433,-3.02323 -8.606083,-4.31534 -1.98599,-1.56217 -5.00842,-2.34927 -9.02115,-2.34927 -42.20582004,0 -49.1833988,-56.01114 -8.261242,-66.31545 10.845072,-2.73083 14.802312,-8.96572 24.786725,-39.05313 19.07547,-57.4827 37.67656,-91.21329 65.543883,-118.85507 6.57914,-6.5259 12.26599,-11.83139 12.63744,-11.78998 0.37145,0.0414 3.00738,-1.856068 5.85761,-4.216622 11.06947,-9.167663 41.89653,-21.373796 58.32119,-23.092575 6.16884,-0.645545 7.67148,-1.436401 14.375,-7.565766 4.11734,-3.764675 14.09544,-12.48926 22.17357,-19.387965 8.07812,-6.898705 14.6875,-12.929495 14.6875,-13.401755 0,-0.47226 1.82812,-1.731036 4.0625,-2.797281 2.23437,-1.066245 8.79997,-5.332748 14.59021,-9.481118 37.7468,-27.0433571 58.30044,-25.6104851 69.00171,4.810369 5.79069,16.461363 3.53005,55.301239 -4.36124,74.930273 -2.55595,6.35774 -2.69186,7.95328 -1.70357,19.99999 2.96609,36.15536 -3.62856,91.99235 -13.50461,114.34354 -0.91193,2.06385 -2.81714,6.4565 -4.2338,9.76145 -20.29125,47.33757 -81.65218,77.49686 -190.1012,93.43597 -9.96875,1.46514 -22.62499,3.73123 -28.124993,5.03575 -12.37743,2.93574 -30.19121,3.07779 -38.11945,0.30398 z m 36.94396,-10.34999 c 5.459023,-1.33946 20.050483,-3.89514 32.425483,-5.67927 76.40662,-11.01578 133.39153,-32.58918 159.62362,-60.43049 16.29824,-17.29806 23.79724,-34.9439 32.75685,-77.07986 2.41319,-11.34892 3.61548,-49.51137 2.17633,-69.07955 -1.07382,-14.60054 -0.98692,-15.67742 1.82726,-22.644598 15.25282,-37.762209 6.92104,-90.6402201 -13.67835,-86.810143 -16.92913,3.147658 -52.28736,27.601627 -90.20571,62.386802 -2.0625,1.892077 -4.95075,4.508276 -6.41834,5.813776 -1.6826,1.496764 -6.04699,2.841844 -11.81411,3.641042 -17.76335,2.461619 -42.46543,12.244636 -54.14653,21.444211 -2.79235,2.19915 -5.93066,4.65699 -6.97401,5.46187 -29.38512,22.66854 -53.192673,62.29757 -72.714033,121.03659 -12.45309,37.47088 -17.459523,45.02662 -32.603987,49.20615 -19.434855,5.36356 -25.363474,16.02485 -17.516488,31.49947 7.265649,14.32819 29.740872,19.69523 47.187505,11.26826 5.52963,-2.67087 8.19499,-3.05261 23.125,-3.31192 23.822743,-0.41378 42.041613,-5.6349 64.877483,-18.59246 11.50825,-6.53002 10.616,-6.27243 13.1051,-3.78333 2.94314,2.94314 1.27943,5.07751 -8.23263,10.56163 -23.77773,13.70886 -46.98724,20.27723 -70.719143,20.01373 -12.33243,-0.13693 -31.09531,4.93074 -24.50958,6.61979 6.03809,1.5486 23.14904,0.73511 32.42828,-1.5417 z m -35.69951,-65.12362 c 0,-1.65525 5.79117,-9.90495 8.05892,-11.48018 1.59684,-1.1092 4.44108,2.41275 4.44108,5.49928 0,2.5265 -3.96034,5.46131 -9.0625,6.71576 -2.38275,0.58584 -3.4375,0.36035 -3.4375,-0.73486 z M 216.79866,239.70153 c -61.43745,-14.03145 -59.2691,-102.32037 2.90348,-118.22144 48.98756,-12.52891 88.5781,29.47092 67.32165,71.41852 -10.35122,20.42713 -40.86425,32.36727 -43.90184,17.17933 -0.88403,-4.42007 -0.72706,-4.43133 -6.85345,0.49197 -18.29526,14.70247 -39.27349,-2.6581 -34.86668,-28.85399 4.98267,-29.61891 37.69805,-51.43478 49.68889,-33.13445 2.03184,3.10096 2.03184,3.10096 3.67951,-0.8177 1.4341,-3.41074 2.17765,-3.86765 5.73639,-3.52501 5.86334,0.5645 5.77114,2.45027 -1.45901,29.84241 -8.2606,31.29606 -8.21573,33.37662 0.66837,30.99279 12.15363,-3.26114 21.07889,-18.00323 21.07889,-34.81655 0,-56.55247 -87.88329,-53.12719 -96.75872,3.77121 -6.83824,43.83832 40.64276,72.44569 80.85891,48.71759 4.99407,-2.94659 8.21172,-3.16049 10.26819,-0.6826 9.16047,11.03768 -32.34439,23.58056 -58.36458,17.63792 z m 15.11369,-37.37286 c 13.03485,-7.89049 21.619,-37.56879 13.4026,-46.33725 -8.72144,-9.30744 -24.19666,1.08994 -30.10804,20.22874 -6.89809,22.33341 1.43284,35.35361 16.70544,26.10851 z"
     id="path4216"
     inkscape:connector-curvature="0" />
</svg>
